<?xml version="1.0" encoding="utf-8"?>
<!-- Svg Vector Icons : http://www.onlinewebfonts.com/icon -->
<!DOCTYPE svg PUBLIC "-//W3C//DTD SVG 1.1//EN" "http://www.w3.org/Graphics/SVG/1.1/DTD/svg11.dtd">
<svg version="1.1" xmlns="http://www.w3.org/2000/svg" xmlns:xlink="http://www.w3.org/1999/xlink" x="0px" y="0px" viewBox="0 0 1000 1000" enable-background="new 0 0 1000 1000" xml:space="preserve">
<metadata> Svg Vector Icons : http://www.onlinewebfonts.com/icon </metadata>
<g><g transform="translate(0.000000,511.000000) scale(0.100000,-0.100000)"><path d="M317.6,4954.1c-85.8-43.9-117.8-75.8-161.7-161.7L100,4686.7V120c0-3439,6-4580.7,24-4632.5c35.9-107.8,95.8-173.7,203.6-227.5l99.8-49.9H5002h4574.7l105.8,55.9c85.8,43.9,117.8,75.8,161.7,161.7l55.9,105.8V108v4574.7l-49.9,99.8c-53.9,107.8-119.7,167.7-227.5,203.6c-51.9,18-1193.6,24-4632.5,24H423.3L317.6,4954.1z M9375.1,4708.6c75.8-27.9,183.6-133.7,217.5-211.6c24-53.9,27.9-754.5,27.9-4385c0-2997.9-6-4337.2-21.9-4377.1c-27.9-75.8-133.7-183.6-211.6-217.5c-95.8-41.9-8678.3-41.9-8774.1,0c-77.9,33.9-183.6,141.7-211.6,217.5c-29.9,79.8-29.9,8670.3,0,8750.2c27.9,73.8,131.7,183.6,207.6,217.6c49.9,22,810.4,25.9,4385.1,27.9C7995.9,4730.6,9335.2,4724.6,9375.1,4708.6z"/><path d="M1876.4,1267.6V-858h1057.8h1057.8V429.3v1287.4h397.2c578.8,0,824.3-51.9,1085.8-225.5c321.4-217.6,463.1-582.8,487-1263.4c12-381.2-12-706.6-75.8-956c-113.8-445.1-331.3-664.6-762.5-768.4c-203.6-49.9-552.9-75.8-552.9-43.9c0,18-343.3,24-1337.3,24H1896.3V-2357v-840.3l1652.6,10c984,6,1738.5,18,1866.2,31.9c762.5,77.8,1311.3,315.4,1792.3,774.4c421.2,405.2,672.6,886.2,806.4,1548.8c165.7,822.3,91.8,1844.2-181.6,2556.8c-253.5,658.7-748.5,1179.6-1343.3,1411.1c-594.8,233.5-880.2,257.5-3089.7,257.5H1876.4V1267.6z"/></g></g>
</svg>