<?xml version="1.0" standalone="no"?>
<!DOCTYPE svg PUBLIC "-//W3C//DTD SVG 20010904//EN"
 "http://www.w3.org/TR/2001/REC-SVG-20010904/DTD/svg10.dtd">
<svg version="1.0" xmlns="http://www.w3.org/2000/svg"
 width="512.000000pt" height="512.000000pt" viewBox="0 0 512.000000 512.000000"
 preserveAspectRatio="xMidYMid meet">
<metadata>
Created by potrace 1.14, written by Peter Selinger 2001-2017
</metadata>
<g transform="translate(0.000000,512.000000) scale(0.100000,-0.100000)"
fill="#000000" stroke="none">
<path d="M2137 4693 c-1 0 -22 -3 -47 -4 -139 -9 -278 -108 -341 -243 -34 -73
-40 -108 -44 -264 -1 -64 -3 -120 -4 -123 0 -3 -268 -6 -593 -7 -326 0 -600
-3 -608 -5 -8 -2 -33 -7 -55 -12 -145 -29 -295 -147 -374 -295 -65 -122 -70
-163 -68 -483 l2 -280 1265 -422 c891 -297 1276 -421 1300 -419 19 1 600 191
1290 422 l1255 419 2 284 c1 244 -1 293 -16 351 -32 120 -106 236 -194 304
-20 16 -43 34 -50 40 -27 23 -145 72 -206 84 -47 10 -209 13 -650 13 l-586 0
-2 139 c-2 158 -16 221 -69 303 -57 90 -139 151 -240 181 -51 15 -117 17 -512
18 -250 0 -454 0 -455 -1z m848 -533 l0 -105 -425 0 -425 0 -2 95 c-1 52 0
100 2 106 2 8 127 11 427 10 l423 -1 0 -105z"/>
<path d="M0 1786 c1 -934 -1 -894 60 -1029 22 -49 92 -142 139 -184 52 -47
158 -102 236 -124 l80 -22 2045 0 2045 0 82 23 c125 34 222 98 306 203 35 43
86 132 91 158 2 8 6 21 9 29 24 60 26 148 27 948 0 747 -2 854 -14 849 -67
-26 -2430 -808 -2461 -815 -120 -26 -82 -38 -2460 758 -99 33 -181 60 -182 60
-2 0 -3 -384 -3 -854z"/>
</g>
</svg>
