<?xml version="1.0" encoding="utf-8"?>
<!-- Svg Vector Icons : http://www.onlinewebfonts.com/icon -->
<!DOCTYPE svg PUBLIC "-//W3C//DTD SVG 1.1//EN" "http://www.w3.org/Graphics/SVG/1.1/DTD/svg11.dtd">
<svg version="1.1" xmlns="http://www.w3.org/2000/svg" xmlns:xlink="http://www.w3.org/1999/xlink" x="0px" y="0px" viewBox="0 0 1000 1000" enable-background="new 0 0 1000 1000" xml:space="preserve">
<metadata> Svg Vector Icons : http://www.onlinewebfonts.com/icon </metadata>
<g><g id="e6c6b53d3c8160b22dad35a0f71070d4"><path d="M786.6,575.7c-37.5,0-72.7-5.6-102.8-13c6.2-8.5,11.6-18.8,15.2-31.2c19.6-0.2,40.1-0.6,59.9-1.4c31.5-1.1,61.4-3,83.5-6c20.9-2.8,31.7-8.2,36.1-13.2c3.1-3.6,3.9-7.4,3-10.8c-0.9-3.4-3.5-6.1-7-7.6c-4.9-2.1-12.3-1.9-19,2.3c-14.3,8.9,7.2,9.6,11.5,9.3c-3.9,2.7-11.9,5.4-26.3,7.4c-21.7,2.9-51.1,4.8-82.2,5.9c-18.7,0.7-37.9,1.1-56.5,1.3c2-11.8,1.8-22.3,0.3-31.4c16.4-2,48.9-10.2,76.5-43.7c6-7.3,10.7-15.4,14.4-23.7c1.6-2.2,3-4.5,4.4-7l-1.4-0.7c9-25.3,9.3-52.3,8-70.7c9.3-15,14.9-28.5,17.6-35.6c13.9-7.3,22.2,12.1,22.3,12.2c0.6,1.3,2.1,1.9,3.4,1.3c1.3-0.6,1.9-2.1,1.3-3.4c0-0.1-9.4-22.1-25.1-17.2c-0.3-0.7-0.9-1.3-1.6-1.6c-1.4-0.4-2.8,0.3-3.2,1.7c0,0-0.3,1-0.9,2.8c-3.6,2.5-7.5,6.5-11.6,12.3c-1.5,2.2-3.1,4.5-4.6,6.8l-0.4-1.9l0-0.1c-6-31.5-25-26.8-46.5-8.7c-13.9-21.4-33.1-39-53.3-53.2c11.3-6.8,29.6-19,43.6-34.7c8.8,5.3,9.7,14.5,9.7,14.5c0.2,1.8,1.8,3,3.6,2.9c1.8-0.2,3-1.8,2.8-3.6c0-0.1-1.2-11.8-11.9-18.9c4.2-5.3,7.8-10.9,10.5-16.8c19.6-42.9-15.8-22.7-16-22.6c-1.2,0.7-1.7,2.3-1,3.5c0.7,1.2,2.3,1.7,3.5,1c0.1,0,21.7-12.4,8.8,16c-2.7,5.8-6.3,11.3-10.4,16.5c-5.2-2.2-12.1-3.3-21.1-2.3c-4.2,0.5-8.5,1.3-12.8,2.3c8.3-8.9,13.9-12.2,14-12.2c1.2-0.8,1.6-2.4,0.8-3.6c-0.8-1.2-2.3-1.6-3.5-0.8c0,0-8.6,5.1-20.4,19.2c-15.4,5-29.4,12.3-37.7,17.1c-8.4-4.3-16.5-8-24-11.2c34.5-24.8,64.6-50,64.7-50.1c-0.1,0.1-44.2,17.3-82.9,42.8l-2-0.7c1.1-9.9,0.6-20.2-3.5-31.9L777.8,38.4l-120.2,87.6c13.9-27.3,12.8-51.9,12.7-52c0-1.8-1.5-3.2-3.3-3.1c-1.8,0.1-3.2,1.5-3.1,3.3c0,0.1,1.4,31.3-19.5,61.5l-37.2,27.1c-1.6-2.6-3.5-5.5-5.9-8.6c9.1-9,25.4-28.3,26.1-51.7c1.1-34.2-26.5-36.9-26.6-37c-1.8-0.2-3.4,1.1-3.6,2.8c-0.2,1.8,1.1,3.4,2.8,3.6c0.1,0,21.8,2.2,20.9,30.3c-0.7,20.9-15.2,38.4-23.8,46.9c-5.7-6.6-13.3-13.8-23.2-20.6c5-11.6,6.5-21.5,6.7-22.5c0,0.1-3,9.8-8.7,21.1c-10.5-7-23.5-13.6-39.5-19c17.3-23.6,39.4-59.9,29.8-80c-1.5-3.1-3.3-5.7-5.5-8l0,0c-7.2-7.4-18-10.5-30.3-10.1c-11.8,0.4-25.1,4-37.9,10.1c-11.7,5.6-23,13.2-32.2,22.3C445,53.7,442.4,64,444.8,72c1.2,4.1,3.7,7.6,6.9,10.1c3.2,2.5,7.1,4.2,11.1,4.9c8.6,1.5,18.2-1.5,24-10.4c23.5-36.3-45.3-17.8-21-10.7c2.3,0.7,4.6-0.5,5.8-2.6c7.4-14.2,21.7,22.3-7.6,17.3c-3-0.5-5.9-1.8-8.2-3.6c-2.2-1.8-3.9-4.1-4.8-6.9c-1.7-5.9,0.5-13.9,9.9-23.1v0c8.8-8.6,19.5-15.8,30.5-21.1c12-5.7,24.3-9.1,35.3-9.5c11.9-0.4,22,5.9,27.4,17.1c8.7,18.1-12.7,51.5-28.4,72.3c-19.7-5.8-43.7-9.7-72.8-10.1c-60.5-0.9-119.5,21-166.2,62.8c-14.5-19.2-41.3-43.1-89.3-56.4c41.2,28.4,63.4,53.5,75,70.3c-3.9,4.1-7.4,8-10.3,11.4l-0.9,0.6l0,0l-0.4,0.3l-0.1,0.1l-0.1,0.1l-0.1,0.1c-0.8,0.6-1.4,1-1.6,1.2c-11.6-17.5-39.4-45.7-103.5-60.7c51,26.9,74.7,52.8,85.1,67.9c-4.4,1.9-8.8,4.3-13.3,7.3c-13.5,4-26.8,11.1-39.3,22.1c-13.9-12.4-36.6-26-71.1-29.5c26.8,16,45.4,31.1,57.9,43c-18.2,21.2-28.6,45.8-33.7,71.5c-8,1.6-16.3,4.1-24.8,8c-8.7,3.9-15.9,8.4-21.6,13.2c-11.8,9.9-17.9,21.2-19.9,32.3c-0.4,1.9-0.6,3.7-0.7,5.5c-5.2,0.1-10,1-13.6,3l0,0c-4.7,2.5-7.6,6.5-7.8,12.3c-1.1,22.4,26.2,23.9,35,23.8c6.1,6.6,12.9,10.3,18.8,11.4v0c3.7,0.7,7.1,0.4,10-0.8c3.2-1.3,5.8-3.5,7.5-6.7c2.1-4,2.7-9.3,1.1-15.7c-2.7-10.8-16.8-19.8-31.5-24.1c-3-0.9-6.1-1.6-9.1-2.1c0.1-1.5,0.3-3,0.6-4.5c1.7-8.9,6.7-18.1,16.4-26.3c5.1-4.2,11.4-8.2,19.3-11.7c6.4-2.9,12.7-5,18.7-6.4c-1,7.2-1.6,14.5-1.9,21.8c-0.6,15.2,0.3,30.4,2.3,45.1c-4.9,10.7-8.7,22.9-10.8,36.7c-4.7,3.6-9.8,7.9-14.7,12.7l0,0l-0.4,0.5c-16.8,16.7-31.8,40.2-25.5,68.1c4.2,18.7,18.9,37.6,36.5,54.5l0.4,0.5l0.1,0c3,2.9,6.2,5.8,9.3,8.5c0.3,1.7,0.6,2.6,0.6,2.6l1.9-0.5c3.6,3.1,7.2,6,10.8,8.9c0.6,2.2,2.6,8.9,6.4,18c-20.2,12.7-41.9,36.6-36.1,80v0c2.9,21.3,11.3,37.5,22.6,48.8c9.9,9.9,22,16.1,34.3,18.7c12.4,2.6,25.1,1.7,36.2-2.5c10-3.8,18.8-10.3,25.1-19.4c2.8,0.4,5.7,0.8,8.7,1c22.7,1.8,39-3.2,50.7-11l3.1,1.3c-0.4,4.9-1,9.7-1.9,14.3c-6.5,7.2-12.5,13.7-17.7,19.3c-34.6,36.5-42.6,26.4-42.6,26.3c-1.2-1.4-3.2-1.5-4.5-0.4c-1.3,1.2-1.5,3.2-0.3,4.5c4.9,4.8,18.4,21.1,52.2-26.1c3.1-3.2,6.4-6.8,9.9-10.6c-10.4,35.6-32.4,60.6-32.4,60.7c-1.2,1.3-1,3.4,0.3,4.5c1.3,1.2,3.4,1,4.6-0.3c0.1-0.1,27.8-31.8,36.7-75c3.4-3.8,6.9-7.8,10.6-12c8.9,2.9,17.9,5.2,26.4,6.9l-0.1,3.8c-37.6,48.6-77.8,97.4-113.4,133.3c-82.5,83.4-27.5-21.3-27.3-21.6c-5.9-6.7-93.9,150.9,34.5,31.3c33.5-33.9,70.7-79.6,105.7-126.2c-0.5,18.6-1.2,37.6-2.2,56.4c-36.1,49.7-74,96.6-109.1,130c16.4-5.1,34.1-23.5,48.9-40.7c19.8-22.9,39.8-48.5,59.3-75.1c-2.5,39.2-6.3,76.9-12.4,107.1c-7.9,39.4-19.2,67.7-34.2,64.7c25.6,9.4,34.1-23.9,43.5-70.9c6.4-32,10.2-72.1,12.3-113.5c13.5-18.6,26.7-37.6,39.4-56.4c4.6,5.6,10.1,10.9,16.7,15.3c9.4,6.4,17.3,7.6,23.8,5.7c3.1,0.9,6.3,1.5,9.6,1.6c14.6,0.4,23.6-6.3,29-15.3c12.4,7.4,25.7,13.9,39.1,18.6c5.3,19.2,8.5,42.8,6.2,70.4c-6.7,81.4-80.2,86.8-80.4,86.8c0.2,0,79.2,6,86.8-86.3c2.2-26.6-0.1-49.5-4.2-68.3c8.5,2.3,17,3.8,25.3,4.1c30,0.9,60.7-10.1,61.7-43.8c0.3-9.7-1.8-19.6-4.9-27.9c-3.8-10.3-10.5-21.8-17.4-32.1c8.3-6.8,15.6-13.5,22-20.1c8.8,1.2,26.8,6,41.9,24.4c19.9,24.5-3.7,48.1-3.8,48.2l2.3,2.2c0.1-0.1,30-25.5,6.4-54.5c-14.2-17.4-31-23.7-41.6-26c14.1-15.7,23-30.2,28.3-40.8c2-1.7,3.7-3.4,5.2-4.9l77.9,87.8l6.6-5.9l-76.2-91.4c6.6-3.4,15.9-8.9,25.1-17.5l5.3,1c24.1,19.5,26.9,61.5,26.9,61.6c0.1,1.8,1.7,3.1,3.4,3c1.8-0.1,3.1-1.7,3-3.5c0-0.1-2-31-17.9-53.7c17.9,9.9,53,27.2,78.4,27.2c24,0,31.8-13,34.3-21.5c79.7-3.2,144-35.9,144-35.9S894.3,575.7,786.6,575.7z M810.5,316.9c0.9-1.3,1.8-2.5,2.7-3.5c-2.4,5.5-5.6,12.1-9.8,19.4c-0.2-1.5-0.3-2.9-0.5-4.2C805.4,324.5,807.9,320.6,810.5,316.9z M90.3,379.6c11.7,3.4,22.7,9.8,24.4,16.7c0.9,3.8,0.8,6.6-0.2,8.4c-0.5,0.9-1.3,1.6-2.2,2c-1.2,0.5-2.7,0.6-4.4,0.3v0c-4.4-0.8-9.6-3.9-14.4-9.7c-2.2-2.6-4.2-5.8-5.7-9.3c-1.4-3-2.4-6.3-3.1-9.7C86.6,378.6,88.5,379.1,90.3,379.6z M62.6,382.5c0.1-1.7,1-2.9,2.5-3.6v0c2.2-1.2,5.3-1.7,9-1.7c0.7,5.4,2.2,10.5,4.3,15.1c0.5,1,0.9,2,1.4,3C72,394.4,62.2,391.6,62.6,382.5z M98.1,501.4c-2.3-10-1.2-19.4,1.9-28.1c-0.5,6.9-0.5,14.1,0.2,21.4c0.7,7.5,2.1,15.2,4.1,22.6C101.4,512,99.3,506.6,98.1,501.4z M111.3,500.2c-0.3-2.2-0.6-4.3-0.8-6.5c-1.6-16.8,0.2-32.9,5.7-43.9C113.2,462.8,110.2,481.2,111.3,500.2z M636.6,336.1c0.1-9.4-0.8-20.1-3.3-32.1c19.2,16.7,37.8,42.7,36.1,79.9c-0.4,8.3-1.8,16.3-4,23.8c-7-0.2-13.2-0.8-18.8-1.6c-2.9-2.5-5.9-4.7-8.9-6.6c0.5-8.2,0.8-17,1.1-26.5C639,360.1,638.2,347.7,636.6,336.1z M636.6,414.5c6.3,5.1,12.3,11.7,16.8,20.3c-2.8,4.6-5.8,9-9,13.2c-3.8,0-7.6,0-11.3-0.1C634.3,439.3,635.6,428.1,636.6,414.5z M655.8,480.6c-2,5.5-4.6,10.7-7.5,15.5c-1.1-3.5-2.2-6.8-3.5-9.8C648.3,484.7,651.9,482.8,655.8,480.6z M652.8,412c3.4,0.4,7.1,0.6,11,0.8c-1,2.9-2.2,5.8-3.4,8.6C658,417.9,655.5,414.8,652.8,412z M671.7,470.8c1.1-0.8,2.2-1.5,3.3-2.3c2,3.3,4,7.1,5.5,11.4c-5,14.4-13.8,21.2-22.1,24.3C664.3,494.5,669.5,483.1,671.7,470.8z M677.2,441.7c-1.4-1.2-2.7-2.3-3.8-3.2c2.4-4.5,4.6-9.2,6.6-14.1c1.1,3.5,2.1,7.4,2.9,11.6C681,437.9,679.1,439.8,677.2,441.7z M625,274.1c-1-3-2.1-5.9-3.1-8.6c25.8,10.8,54.8,27.6,72.2,52.4c-4.7,7.2-8.3,16.2-11,25.3C671.6,308.7,645,286.5,625,274.1z M617.5,403.3c4,1.6,8.4,3.8,13,6.8c-1.1,15.6-2.5,28.2-3.8,37.6c-3.5-0.1-7-0.3-10.5-0.5C618.2,437,620,421.2,617.5,403.3z M618,389.7c4.9-5.4,10.5-13.7,14.3-25.6c0,2.9,0,5.7,0,8.7c-0.2,8.1-0.5,15.8-0.9,23C626.5,393.1,621.9,391.2,618,389.7z M626,494.1l1.1-0.4c2.5,6.3,4.7,13.9,5.9,22.8l0,0.1l-1.9,2.1c-4.6-0.1-9.1-0.2-13.5-0.3c-0.2-2.1-0.5-4.1-0.8-6c-0.6-4-0.7-7.6-0.5-10.7C619.3,499.4,622.6,496.9,626,494.1z M633.1,531.6c-0.5,5.6-1.7,10.6-3.2,14.8c-3.6-1.3-7.1-2.6-10.3-3.9c-0.3-3.5-0.6-7.4-0.9-11.3C623.4,531.5,628.2,531.6,633.1,531.6z M701.6,330.4c4.4,9,7.3,18.8,8.2,29.6c-8.3,10.9-15.7,21.3-21.4,29.7c0.1-1.6,0.3-3.2,0.3-4.9c0.1-2.4,0.2-4.7,0.1-6.9C690.4,365.9,694.1,345.1,701.6,330.4z M710,372.2c-0.4,12.2-3,23.2-7.1,32.9c-6,0.9-11.7,1.5-17,2C690.5,400.2,699.3,387,710,372.2z M723.3,406.4c12.3-3.4,23.3-8.5,33.1-14.8c-4.3,26.8-25.2,41.6-52.3,49.3C712,431,718.8,419.6,723.3,406.4z M686.4,412.2c4.5-0.4,9.2-0.8,14.1-1.5c-2.7,5.6-5.9,10.7-9.4,15.4C689.6,421,688,416.3,686.4,412.2z M700.6,479.7c-0.6-2.5-1.4-4.8-2.3-7.1c7.4,1.3,17.2,2.1,27.8,0.7C715.9,477.4,706.8,479,700.6,479.7z M772.8,438.7c-7.4,9-15.2,16.1-22.9,21.6c-20.5,11.1-41.7,9.2-53.9,6.6c-0.6-1.2-1.1-2.3-1.7-3.4l0.1-1.1c18-3.4,34.8-9,48.4-17.8c7.9-0.2,20.1-1.7,31.8-8.2C774,437.2,773.4,438,772.8,438.7z M796.6,343.7c-2.8,4.3-6,8.6-9.5,12.9c2.8-5.6,5.9-11.3,9.1-17L796.6,343.7z M793.7,320.1L793.7,320.1l0,0.1v0c0.2,0.8,0.9,4.6,1.7,10.6c-7.4,12.5-14.1,25.7-19.6,37c-2.1-19.2-8.3-36.5-17.3-51.8C775.4,301.8,789.5,298.2,793.7,320.1z M776.5,378.6L776.5,378.6l2.4-5.1c6.9-6.8,12.9-14.1,18.1-21.3c0.4,16.4-1,36.9-7.7,56.3l-0.8-0.4c-8,14.8-20.2,21.4-30.9,24.3C769.9,419.4,777.1,401.9,776.5,378.6z M757.2,379c0,2,0,4-0.1,5.9c-9.4,6.5-20,11.9-32,15.5c3.5-12.3,5-26,3.9-41.2c-0.3-3.5-0.7-7-1.3-10.3c5.4-6.7,10.9-13.2,16.4-19C751.9,344.6,756.8,360.9,757.2,379z M730.7,309.4c3.6,4.5,6.8,9.1,9.8,14c-5,5.1-9.9,10.7-14.8,16.5c-2.5-9.2-6.2-17.6-10.9-25.4C721,310.3,726.6,309.3,730.7,309.4z M703.2,223.5c6.9-2.2,14-4,21-4.8c6.6-0.7,11.8-0.1,15.9,1.2c-14.3,15.6-32.8,27.5-43.3,33.7c-3.1-2.1-6.3-4.2-9.5-6.1C692.9,237.6,698.3,229.7,703.2,223.5z M694.4,226.6c-3.7,5.2-7.6,11.2-11.5,18.1c-4.1-2.4-8.1-4.7-12.2-6.9C676.9,234.4,685.2,230.3,694.4,226.6z M616.3,234.3c28,10.4,72.8,30.8,104.4,63.6c-4.1,1.1-8.5,2.9-12.9,6c-23.9-31.5-63-50.9-93.1-61.9C615.2,239.4,615.8,236.9,616.3,234.3z M610.1,333.6c4.3,19.9,0.5,32-1.9,37.1c-0.5-1.1-1-2.1-1.5-3.2c-0.7-1.4-1.4-2.8-2.1-4.1c-2.4-10.6-7-26.8-14.3-34.9C590.2,328.6,604.2,306.2,610.1,333.6z M564.6,604.2c0,0,11.9-3.7,15.8-16.1c3.9-12.4,3.5-19,3.5-19s10.1,15.3,3.7,24.7C581.1,603.2,564.6,604.2,564.6,604.2z M574.2,635c-2.4,1.5-5,2.8-7.6,4c1.2-1.2,2.5-2.4,3.7-3.6C571.5,635.3,572.8,635.2,574.2,635z M555.9,659.1c-1.3-2.1-2.8-4.5-4.5-7l0.1-0.1c1.3,1.6,3.2,3.9,5.5,6.8L555.9,659.1z M557.7,673.7l-1,0.8l-1.7-2.5l1.8-0.3L557.7,673.7z M529.5,597c0,0,6.2-3.5,18.3-14.1c12.1-10.6,16.1-24.5,16.1-24.5s4.9,17.3-7.4,30.7C544.1,602.5,530.7,597.3,529.5,597z M550.3,659.9c-1.3,0.1-2.6,0.3-3.9,0.3c-0.8-1-1.6-2-2.5-3c1.1-0.7,2.2-1.4,3.3-2.1C548.3,656.8,549.4,658.4,550.3,659.9z M540,660.5l-2,0l1.4-0.7L540,660.5z M347.6,637.6l-0.4-27.9l0.7-0.4l11,14.7C356.4,628.1,352.8,632.7,347.6,637.6z M349.9,715.7l-0.9,1.1l-1.2-0.2l0-3.7L349.9,715.7z M390.7,190.7c-6.5-5.8-14.4-11.2-23.8-15.6c-1.8-0.9-3.6-1.6-5.4-2.4c12.3-8.9,31.6-19.1,54.3-17.1c9.7,4.4,18.1,9.7,25.5,15.6C422.6,174.4,405.7,181.4,390.7,190.7z M398.9,236.7c-6.1,0.7-11.4,1.6-15.5,2.4c2.6-2.9,6.5-6.7,11.9-10.7C396.7,231.2,397.9,234,398.9,236.7z M374.3,202.3c-8.4,6.7-16,13.9-23.1,21.5c1.2-10,2.1-19.6,2.4-27.6c0.1-1.9,0.1-3.8,0.1-5.6c1.6,0.6,3.2,1.3,4.8,2.1C364.6,195.4,369.8,198.7,374.3,202.3z M362.1,715.1c1.3-0.3,2.7-0.5,4.2-0.7c0.6,1.7,1.3,3.5,2,5.4c-2.7-0.3-5.7-0.7-8.8-1.2L362.1,715.1z M362.2,659.4c2.7-3.5,5.5-7,8.2-10.6c3.9-5.1,7.8-10.2,11.6-15.3c7.2,4.6,14.4,8.2,20.9,10.9c-4.7,6.4-9.5,13-14.4,19.7C377.6,662.5,366.8,660.3,362.2,659.4z M398.8,610.2l-0.1,0l-0.1,0l-0.1,0h-0.1l-0.1,0l-0.1,0l-0.2,0.1l-0.1,0h-0.1l-0.1,0l-0.1,0l-0.1,0l-0.1,0h0l-0.1,0l-0.1,0l-0.1,0l-0.1,0l-0.2,0l-0.1,0l-0.1,0l-0.1,0l-0.1,0l-0.1,0l0,0l-0.1,0l-0.1,0l-0.1,0l-0.1,0l-0.1,0h0l-0.1,0l-0.1,0l-0.1,0l-0.1,0l-0.1,0h0l-0.1,0l-0.1,0l-0.1,0l-0.1,0l-0.1,0H394l-0.1,0l-0.1,0l-0.1,0l-0.1,0h-0.1h-0.1l-0.1,0l-0.1,0l-0.1,0l-0.1,0h0l-0.1,0l-0.1,0l-0.1,0l-0.2,0l-0.1,0h0l-0.1,0l-0.2,0h-0.1l-0.1,0l-0.1,0l0,0h-0.1h-0.1l-0.1,0h-0.1l-0.1,0h0h-0.1h-0.1h-0.1c-2.9,0-6-0.4-9.1-1.3c-16.3-4.7-18.8-21.8-18.8-21.8s12.7,9.4,26.4,13.1c2.6,0.7,5,1.3,7.2,1.7l0.1,0l0.1,0l0.1,0l0.1,0l0,0l0.1,0l0.1,0l0.1,0l0.1,0l0.1,0l0,0l0.1,0l0.1,0l0.1,0l0.1,0h0l0.1,0l0.1,0l0.1,0l0.1,0l0.1,0l0,0l0.1,0l0.1,0l0.1,0l0.1,0h0l0.1,0l0.1,0l0.1,0l0.1,0l0.1,0l0,0l0.1,0l0.1,0l0.1,0l0.1,0l0,0l0.1,0l0.1,0l0.1,0l0.1,0l0.1,0l0,0l0.1,0l0.1,0l0.1,0l0.1,0h0l0.1,0l0.1,0l0.1,0l0.1,0h0.1l0,0l0.1,0l0.1,0l0.1,0l0.1,0h0l0.1,0l0.1,0l0.1,0l0.1,0l0.1,0h0l0.1,0l0.1,0l0.1,0l0.1,0h0l0.1,0l0.1,0l0.1,0l0.1,0h0.1l0,0l0.1,0c5.4,0.8,8.5,0.8,8.5,0.8S406.4,608.5,398.8,610.2z M405.3,207.4c-1.7-2.4-3.5-4.8-5.5-7.2c14.5-8.6,30.7-14.7,48.7-16.9c1.7-0.2,3.5-0.4,5.2-0.5c2.8,3,5.4,6,7.8,9.1C437.7,194.3,419.3,200.4,405.3,207.4z M469.8,204.2c5,8.3,8.7,16.5,11.4,23.9c-4.8-0.1-10.6,0-17.6,0.3c-18.9,0.9-35.7,2.5-46,3.7c-1.5-4.4-3.4-9-5.8-13.7C425.7,211.6,444.6,205.8,469.8,204.2z M537.1,314.6c0,0-8.6-11.4-15.3-17.8c-6.7-6.4-25.9-13.4-25.9-13.4s13.8-14.3,28.4,1C538.9,299.7,537.1,314.6,537.1,314.6z M545.6,553.3c0,0,4.7,10.4-3.5,16.6c-8.2,6.2-15.8,3.5-15.8,3.5L545.6,553.3z M529,205.2c0.3,7.6,0.3,16-0.7,23c-5.9,2.9-11.7,5.7-16.6,7.8c-1.3-9.4-3.7-20.7-8.5-32.7C513.2,203.6,521.8,204.3,529,205.2z M521,176.9c4.5,0.1,8.9,0.4,13,1c0.8,1.7,1.6,3.4,2.3,5C531.5,180.7,526.4,178.7,521,176.9z M496.6,189.9c-1.2-2.1-2.4-4.2-3.8-6.4c9.2,1.3,17.6,3.4,25.2,6C511.4,189.5,504.3,189.7,496.6,189.9z M482.2,169.5c-3-3.5-6.3-6.9-10-10.2c9.2,2.1,19.2,4.2,29,5.6C494.8,165.5,483.8,169.6,482.2,169.5z M463.9,233.5c7.8-0.4,14.1-0.4,19-0.3c0.9,2.8,1.6,5.5,2.2,8c-13.4-0.8-30.1-4.5-50.5-5.7C443.2,234.8,453.3,234,463.9,233.5z M464,638.3c0,0,4.2,6.4,9.5,8.9c5.3,2.5-1.6,4.6-7.8,0.9C459.6,644.3,464,638.3,464,638.3z M473.9,625.5c0,0,21.7,5.7,36.8-1.5c15.1-7.2,20.7-14.3,20.7-14.3s-12.8,36.6-27.7,36.1C489,645.3,473.9,625.5,473.9,625.5z M577.9,318l-24-29.4c0,0,16-2.7,22.5,5C582.8,301.2,577.9,318,577.9,318z M588.1,379.4c0,0-10.7-2.2-15.9-7.7c-5.2-5.4-2-17.8-2-17.8C579.5,362.4,588.1,379.4,588.1,379.4z M584.8,400.6c-8.5-2.4-9.1-18.6-9.1-18.6s2.8,8.2,7.7,9.4c4.8,1.2,7.9,0.1,7.9,0.1S593.3,403,584.8,400.6z M566,142.9c16.4,11.7,24.7,24,28.5,31.2l-13.3,12.3c-2.7-1.9-5.7-3.8-8.7-5.6c-6.7-4.1-14-8.1-21.1-11.1c-1.1-2.2-2.2-4.5-3.5-6.8c7.1-4.2,12.6-12,18-19.8L566,142.9z M521.7,122.1c17.6,5.2,31.3,12,41.8,19.1c-5,7.1-11.2,13.5-18.4,17.1c-6.4-10.3-15.2-21.3-27.6-31.3C518.7,125.8,520.1,124.1,521.7,122.1z M514.4,120.1l-2.4,2.8c-2.4-1.7-5-3.4-7.6-5.1C507.8,118.5,511.1,119.3,514.4,120.1z M524.4,162c-18.3-0.3-42.9-5.6-61.2-10.2c-17.4-13.2-41-24.5-73.1-31.5C438.5,107.1,491.7,117.5,524.4,162z M386.1,146.2c-13.7,4.1-25.1,11-33.5,17.2c-0.8-8-1.9-15-2.8-20.5C363,142.8,375.1,144,386.1,146.2z M312.5,238.8c-1.7-0.5-3-1.5-3.8-2.7c0.5-4,1.6-8.4,3.5-13c6.5,2.6,12.8,5.5,18.7,8.5c-0.9,7-1.9,14.1-2.9,20.7c-5.1,0-11.1,0.2-17.8,0.7c-0.6-2-1.1-4.4-1.5-7.1c3.3,0.8,7,1.4,10.1,0.9c7.9-1.1,7.9-10.3,7.9-10.3S320,241,312.5,238.8z M322.9,205.8c3.2-3.8,7.1-8.2,11.5-12.5l-0.1,2.1c-0.2,5.3-0.7,11.3-1.3,17.6C329.7,210.5,326.3,208.1,322.9,205.8z M330.7,146.3c0.9,5.1,1.9,11.8,2.7,19.3c-11.3-1.2-21.8-0.4-31.2,1.6C310.4,160.2,319.9,153,330.7,146.3z M325.2,184.4c-5.2,5.2-9.9,10.5-13.5,14.8c-4.1-2.2-8.2-4.1-12.3-5.8c-2.3-0.9-4.5-1.7-6.8-2.4C304.1,186.9,311.5,183.9,325.2,184.4z M232.9,652.4l17.8-6.9L240.1,659C237.7,656.9,235.3,654.7,232.9,652.4z M252.2,682.8c-5.1-2.2-10.5-4.9-16.1-8.1l2.5-3.1C243.3,675.6,247.9,679.3,252.2,682.8z M174.1,497.8c3.2,6.1,6.8,11.9,10.5,17.3c-14,14.8-18.1,31.6-18.1,46.2c-1.7-3.6-3.4-7.4-5-11.2l1.2-0.3C162.6,549.7,155.6,520.6,174.1,497.8z M231.4,383c-2.8,3.4-5.4,7.3-7.7,11.6c-9.2,17.6-11.2,33.4-10.3,45.8c-2.5-0.8-5.1-1.6-7.8-2.4c-4-17.8-4.4-32.4-1.9-44.3c3.4-16.2,12.3-27.2,24.5-34.2c1.2-0.7,2.5-1.4,3.8-2C230.5,369.1,231,378.4,231.4,383z M199,586.6c-10.4-7.4-18.5-17-22.1-21.7c-0.6-12.7,2.1-27.9,13.9-41.3c11.9,15.3,24.9,27.5,35.7,36.2C213.4,568.2,204.6,578.3,199,586.6z M230.3,565.1c-1.5,5.8-3.2,13.6-4,20.8c-0.7,6.2-1.1,9.7-1.5,11.8l0,0l-2.8,2c-2.7-1.1-8.2-3.8-17.7-9.6C209.6,582.3,217.8,572.9,230.3,565.1z M180.2,474.7c-2.2-5-4.4-10.5-6.6-16.3c-0.5-3.1-1-6-1.3-9c5.3,1.2,11.4,2.7,18.6,4.5c2.1,0.5,4.1,1.1,6.1,1.6c1,3.2,2,6.4,3.2,9.7C192.4,467.9,185.8,471.1,180.2,474.7z M212,460.1l3.4,1.2l-2.8,0.6L212,460.1z M191.2,391c-2.5,12-2.6,26.3,0.6,43.2c-7.6-1.9-14.4-3.3-20.5-4.3c0.6-43.3,22-70.2,40.2-85.2c0.8,3.3,1.8,6.4,2.6,8.8C202.8,362.3,194.6,374.5,191.2,391z M171.4,595.8l3.4,2.4c18.6,29.7,39.6,51.9,58.8,69l-3.3,4.1c-8.2-5.1-16.6-11.2-24.7-18.7c-19.1-17.6-31.3-38.9-38.5-54.9C168.6,597,170.1,596.4,171.4,595.8z M239.9,615l-1.3-1.3c-5-6.5-0.1-20.9-0.1-20.9s5.8,11.7,9.8,16.1c4.1,4.5,9.8,9.8,9.8,9.8S247,620.7,239.9,615z M239.1,526.9c-7-5.4-3.8-10.6-3.8-10.6s7.6,4.2,15,5.4c7.4,1.2,12.9,0.7,12.9,0.7S246.2,532.3,239.1,526.9z M264.5,589.6c9-8.7,21.3-3.5,28.2,0.7c-5.8,7.8-12.3,16.4-19.4,25.7C266.6,610.7,254.5,599.2,264.5,589.6z M281.4,297.5c3.5-2.4,6.9-4.4,10.3-6.2l3.7,27.1l-5.5,5c-4-1.2-8.3-2.4-12.9-3.6c-5.5-1.5-10.7-2.6-15.4-3.5C266.7,309.6,273.2,303.2,281.4,297.5z M256.6,302.2c-3.1-2.8-7.4-6.2-11.1-9.1c3.2-2,6.7-4.1,10.7-6.2c10.2-5.4,21.2-8.9,31.8-11.2c0.6,0.4,0.9,0.6,0.9,0.6l0.6-0.9c4.1-0.9,8.2-1.5,12.1-2c-8.9,3-18.1,7.3-27.3,13.6C267.3,291.6,261.5,296.7,256.6,302.2z M281.3,533c0,0-8.2-4-8.4-14.6c-0.3-10.6,3.2-19,3.2-19C275.9,520,281.3,533,281.3,533z M273.6,419.3c0,0-7.2,7.5-8.3,12c0,0-2.8-4.9-1.5-9C265.2,418.2,273.6,419.3,273.6,419.3z M280.5,538c10.9,0.7,21.2-2,21.2-2s-2.5,7.4-8.4,7.9C287.4,544.4,280.5,538,280.5,538z M281.8,214c6.2,1.2,12.3,2.8,18.2,4.7c-5.9,14.3-5.1,26.8-2.8,35.7c-4,0.6-8,1.3-12.2,2.1C280.5,248.3,277,234.8,281.8,214z M259.9,211.8h0.5c0.8,23.4,3.9,35.9,3.9,35.9s-1.7-15.3,2.6-25.3c1.2-2.8,2.7-5.5,4.2-7.8c-4.1,20.2-1,34.7,3.7,44.5c-9.3,2.6-18.8,6-27.7,10.7c-1.7,0.9-3.3,1.8-4.9,2.7C241.4,257.3,243.1,231.8,259.9,211.8z M264.5,374.8c-8.6,6.9-17.2,16-23.5,28.2c-7.2,13.8-11.8,26.4-14.8,36.5c-0.8-10.4,0.9-23.7,8.9-39C242.2,387,253.4,379.2,264.5,374.8z M226.3,217.3c2.8-1,5.6-1.9,8.4-2.6c-14.7,27.9-12.4,58.5-10.7,70.2c-3.3,2.7-6.1,5.4-8.5,7.9C208.2,275.2,199.2,240.9,226.3,217.3z M185.5,247.4c4.7,5.3,7.8,9.3,9.5,11.8c0.3,19,7.2,36.1,11.5,45.1c-2,3.1-3.3,5.9-4.3,8.3c-9.6-3.5-25.6-7.8-45.1-6.8C162,284.7,171,264.8,185.5,247.4z M152.7,341c0.3-8.3,1.1-16.6,2.5-24.8c18.2-1.4,33.3,2.4,42.5,5.7c-11.1,6.5-29.5,19.4-44.8,40.7C152.5,355.4,152.4,348.2,152.7,341z M142.9,406.2c0.4,1.9,0.7,3.7,1.1,5.6l-3.1,2C141.5,411.2,142.1,408.7,142.9,406.2z M138.3,427.9c3-2.1,5.7-4,8.1-5.5c0.5,1.9,0.9,3.8,1.4,5.7c-3.7,0.1-6.9,0.5-9.7,1L138.3,427.9z M134.8,533.6c-0.4,1-0.7,2.1-1,3.1c-1.4-2.6-2.6-5.2-3.7-8c-9.3-22.9-6.7-50.6-2.9-69.8c0.6,9.4,2,19.3,4.2,29.7c2.7,12.6,5.9,24.6,9.5,35.8C138.6,526.6,136.5,529.5,134.8,533.6z M137.6,458.4c3.7-2.6,5.2-7.5,3.3-11.8c0,0-1.3-2.7,12.1-0.9c4.7,14.8,9.9,28.1,14.8,39c-10.4,10.6-15.4,23-17.7,34.2c-3.2-10.2-6-21-8.5-32.4C139.4,476.7,138.2,467.3,137.6,458.4z M145.1,553.2c-0.3-4.5-0.1-9.3,1.1-13.5c1,2.6,1.9,5.1,2.9,7.6c0.4,3.4,0.9,5.3,0.9,5.4l1.2-0.3c1.8,4.3,3.6,8.4,5.5,12.4C152.8,561.4,148.8,557.5,145.1,553.2z M208.3,733.8c-9.8,3.7-20.9,4.5-31.9,2.2c-10.9-2.3-21.6-7.8-30.4-16.6c-10.2-10.2-17.8-24.8-20.4-44.3h0c-5.1-38.5,13.5-60.1,31.5-71.8c7.8,17,20.7,39.3,40.8,57.8c8.3,7.6,16.9,14,25.3,19.3l-1.7,2.1c-6,7.5-11.5,13.5-16.6,18.1c-33.4-17.8-46.8-48.7-46.8-48.9c-1.1-2.6-4.2-3.8-6.8-2.6c-2.6,1.2-3.8,4.2-2.6,6.8c0.1,0.1,13.8,31.8,47.6,51.6c-44.4,30.7-51.5-48.8-51.6-49.1c-0.2-1.8-1.7-3.1-3.5-2.9c-1.8,0.2-3.1,1.7-2.9,3.5c0,0.3,8.8,98,64.7,52.1c7.4,3.7,15.6,6.7,24.6,8.8C222.5,726.3,215.8,731,208.3,733.8z M245.6,712.4c-13.1-1.1-24.5-4.3-34.4-8.7c4.8-4.7,9.9-10.4,15.3-17.2l2.2-2.8c19.7,11.4,29.5,15.1,52.3,20.8l0.1-0.3c1,0.6,2.1,1.2,3.1,1.8C274.7,711,262.1,713.8,245.6,712.4z M286.1,675.7c-4.5,5.1-10.1,7.5-15.3,8.5c-7.6-5.9-16.4-12.6-25.6-20.6c4.5-5.4,9-10.6,13.3-15.6c9.8,7.2,21.1,14.1,33.6,19.8C290.5,670.3,288.6,672.9,286.1,675.7z M294.1,699.7l-0.9-0.5c2.6-2,5.6-4.5,8.8-7.5C299.7,694.5,297.1,697.2,294.1,699.7z M298.6,640.3c-7.4-5.2-13.9-11.5-18.4-16.4c8.2-8.9,15.9-16.8,22.8-23.8l12.5,15.4C311.2,627.3,304.7,635.1,298.6,640.3z M304.5,718.6l0.3-3l1.8,0.7L304.5,718.6z M304.5,704.4c8.8-8.7,13.9-18.7,16.7-26.5c5.2,1.3,10.2,2.4,15.1,3.4c-7.7,9.4-15.2,18.3-22.4,26.6C310.7,706.8,307.6,705.7,304.5,704.4z M339.8,715c-6.3-1.4-12.8-3-19.3-4.9c6.3-7.3,12.9-15.1,19.6-23.2C340,695.9,339.9,705.3,339.8,715z M318.4,649.5c6.7-7.4,13.1-18,17.3-32.9l4.1-2.4c0.1,8.7,0.2,18.9,0.2,30.1C333.3,649.8,325.8,650.9,318.4,649.5z M345.1,267.4c1-6,2-12.7,3-19.7l8.1,8.1C352.4,259.4,348.5,263.4,345.1,267.4z M346,789.8c0.8-18.4,1.3-37,1.6-55.1l5.1-6.9c8,1.3,15.2,2.2,20.8,2.8c1.8,3.4,3.9,6.9,6.3,10.4C368.8,757.3,357.5,773.7,346,789.8z M415.3,686.9c-3.4,3.7-8,7-13.9,7.7c-5.5,0.6-12.8-2.6-19.7-6.9l2.6-3.7c3-0.3,6-0.6,8.9-1c6-0.8,16-2.6,27.6-4.8L415.3,686.9z M434.1,657.3c-2.7,1.7-5.9,3.5-9.4,5.1c-3.2,1.1-6.4,2.1-9.7,3c-1.3,0.2-2.7,0.4-4,0.4c-3.6,0.2-8.3-0.1-13.3-0.6c4.3-6.2,8.5-12.2,12.5-18.1c9.3,3.3,16.2,4.6,18.2,4.9c0.9,0.5,3.3,1.7,6.9,3.3L434.1,657.3z M436.7,761.2c4.3-4.6,7.8-10.7,10.5-16.9c2.9,2,5.8,3.9,8.8,5.8C452.1,756.4,446,761,436.7,761.2z M459.5,742.8c-3.2-2.1-6.3-4.2-9.3-6.4c2.1-6.2,3.6-12,4.5-16.3c2.8,0.1,5.6,0,8.2-0.1C462.8,726,462.2,734.9,459.5,742.8z M439.9,674.4c11.1-2.3,22.5-4.9,32.8-7.3c10.5,2,22,3,33.7,2c11.5,2.6,27,5,42.9,3.6c1.2,1.7,2.3,3.4,3.3,4.9c-3,2.2-6.2,4.4-9.5,6.5C491.1,717.5,455.2,689.2,439.9,674.4z M467.2,747.7c3.8-10,4.6-21.2,4.6-28.3c2-0.2,3.8-0.4,5.3-0.6c5.3,7.1,15.3,22.5,22.9,45.2C488.7,759.9,477.7,754.1,467.2,747.7z M588.6,710.2c2.9,7.8,4.9,17,4.6,26c-1,33.6-29.7,36.2-57.2,35.6c-8.9-0.2-17.9-1.9-26.9-4.6c-6.6-24.7-16.2-41.5-21.6-49.5c18.8-2.1,40.1-8.6,62.5-22.7c3.4-2.1,6.7-4.3,9.9-6.5c1,1,1.9,1.7,2.7,2.1c2.7,2.2,3.8,2,2.9-0.6c0.3-0.9,0-2.5-1.4-4.4c2.7-2,5.4-4,7.9-5.9C578.6,689.4,584.9,700.4,588.6,710.2z M589.9,641.8c-2.8,2.4-6,4.9-9.5,7.4c-5.5,3.9-11.6,6.6-17.9,8.4c-2.6-3.3-4.8-6.1-6.4-8c11.4-3.3,22.3-8.3,30.6-16.1l1.2-1.1l2.8-0.7c2.8-0.8,5.5-1.6,8.1-2.5C596.2,633.3,593.2,637.5,589.9,641.8z M597.7,491.3c-1.5-0.1-2.1-1.1-1-3.1c3.4-6,2.5-19.8,2.5-19.8s9.6,3.5,8.4,13.1c-0.2,1.3-0.5,2.4-1,3.5C603.4,487.3,600.5,489.4,597.7,491.3z M618.2,587.7c-2.4,2.5-6.1,5.8-11.1,9c0.6-3,1.1-5.9,1.4-8.7c5.4-8.5,9.3-15.7,11.7-20.7l1.9,0.5C621.8,572.8,620.6,579.7,618.2,587.7z M632.3,580.3l-6.3-11.6l2.7,0.6l7.4,6.2c0,0,1.1-1.4,2.8-3.9l6.7,1.5C640,576.8,635.2,579.1,632.3,580.3z M663.5,557.4c-5.3-1.5-10.5-3.1-15.4-4.7c2.1-6,3.8-13,4.4-20.9c8.3,0,17,0,26,0C674.7,542.2,669.3,550.6,663.5,557.4z M682.2,518.9c-10.3,0.1-20.3,0.1-29.6,0c-0.1-0.9-0.2-1.8-0.2-2.7c9.9-1.4,22.6-6.1,31.5-19.8c0.5,6.5,0.1,13.9-1.6,22.1L682.2,518.9z M774,601.5c-5.5,0-10-5.2-13.2-10.2c8.6,0.7,16.9,1.1,24.9,1.2C783.4,596.9,779.5,601.5,774,601.5z"/></g></g>
</svg>